<svg width="561" height="113" viewBox="0 0 561 113" fill="none" xmlns="http://www.w3.org/2000/svg">
<rect width="550" height="113" fill="white"/>
<path d="M86.3365 6.96243H33.1266C20.4615 6.96243 10.1943 17.2295 10.1943 29.8947V83.1046C10.1943 95.7697 20.4615 106.037 33.1266 106.037H86.3365C99.0016 106.037 109.269 95.7697 109.269 83.1046V29.8947C109.269 17.2295 99.0016 6.96243 86.3365 6.96243Z" fill="#FFE300"/>
<path d="M124.792 28.4124V80.8238H132.705V56.6804H156.232V80.8238H164.154V28.4114H156.232V51.1604H132.705V28.4114L124.792 28.4124ZM192.104 81.1324C198.99 81.1324 204.082 79.224 207.38 75.4071C210.679 71.5908 212.329 65.6851 212.329 57.69C212.329 49.6891 210.679 43.7931 207.38 40.0019C204.08 36.2107 198.989 34.3148 192.104 34.3142C185.245 34.3142 180.159 36.2101 176.848 40.0019C173.537 43.7938 171.882 49.6898 171.882 57.69C171.882 65.6851 173.537 71.5908 176.848 75.4071C180.159 79.224 185.245 81.1324 192.104 81.1324ZM192.104 75.735C188.506 75.735 185.541 74.4749 183.208 71.9547C180.882 69.43 179.719 64.6877 179.719 57.7276C179.719 50.7618 180.882 46.0256 183.208 43.5189C185.541 41.0052 188.506 39.7483 192.104 39.7483C195.703 39.7483 198.665 41.0052 200.991 43.5189C203.323 46.0262 204.49 50.7625 204.49 57.7276C204.49 64.687 203.323 69.4297 200.991 71.9557C198.665 74.4752 195.703 75.735 192.104 75.735ZM219.934 34.8292V80.8335H227.819V42.4813L226.107 34.8292H219.934ZM245.676 53.229V80.8335H253.516V52.686C253.516 47.4605 252.584 43.1081 250.72 39.6287C248.855 36.1494 245.31 34.409 240.083 34.4077C235.474 34.4077 231.573 36.1072 228.38 39.5063C225.181 42.9111 223.582 46.852 223.582 51.3292L227.734 53.4257C227.734 49.1787 228.642 45.8671 230.457 43.4909C232.265 41.109 234.632 39.918 237.556 39.918C240.456 39.918 242.532 41.0094 243.786 43.192C245.046 45.3804 245.676 48.7261 245.676 53.229ZM271.297 53.229V80.8335H279.137V52.686C279.137 47.4605 278.217 43.1081 276.376 39.6287C274.544 36.1481 271.027 34.4077 265.826 34.4077C261.192 34.4077 257.276 36.1198 254.076 39.5439C250.883 42.9737 249.287 46.9025 249.287 51.3302L253.478 53.4257C253.478 49.1787 254.382 45.8671 256.19 43.4909C258.005 41.109 260.362 39.918 263.262 39.918C266.187 39.918 268.257 41.0094 269.472 43.192C270.689 45.3804 271.297 48.7261 271.297 53.229ZM306.47 81.2067V76.0059C302.535 76.0059 299.467 74.5716 297.265 71.703C295.039 68.8781 293.925 64.2196 293.925 57.7276C293.925 50.8679 295.079 46.1191 297.387 43.4813C299.663 40.8621 302.65 39.5525 306.347 39.5525C310.151 39.5525 313.117 40.7966 315.243 43.2846C317.077 45.6112 318.096 49.5963 318.302 55.2396H293.075V60.1318H326.066C326.172 59.3526 326.225 58.5104 326.225 57.6052C326.225 49.9225 324.697 44.1265 321.642 40.217C318.561 36.3069 313.463 34.3518 306.347 34.3518C299.438 34.3518 294.381 36.3069 291.175 40.217C287.938 44.102 286.32 49.9389 286.32 57.7276C286.32 65.0741 287.898 70.83 291.054 74.9953C294.185 79.1356 299.323 81.2057 306.469 81.2057M306.469 76.0059V81.2057C310.347 81.2057 313.555 80.7049 316.093 79.7013C318.631 78.6907 320.701 77.0722 322.304 74.8458C323.883 72.6445 324.893 69.9662 325.335 66.8109L318.264 64.9014C317.827 67.1837 317.169 69.2294 316.29 71.0386C315.354 72.8535 314.045 74.1351 312.361 74.8834C310.684 75.6318 308.719 76.0059 306.469 76.0059ZM363.799 73.2556L364.305 80.8238H371.601V19.8711H363.799V73.2556ZM349.244 81.1324C354.265 81.1324 358.509 79.8691 361.976 77.3425C365.443 74.8236 367.176 72.2048 367.176 69.486L363.801 65.2583C363.801 67.9456 362.631 70.3526 360.292 72.4793C357.947 74.5996 355.144 75.6597 351.883 75.6597C348.416 75.6597 345.672 74.3971 343.651 71.8718C341.637 69.3516 340.63 64.6494 340.63 57.7653C340.63 50.8811 341.637 46.176 343.651 43.6501C345.672 41.1299 348.416 39.8698 351.883 39.8698C355.144 39.8698 357.947 40.9242 360.292 43.0329C362.631 45.1403 363.8 47.5287 363.8 50.198L367.176 46.0822C367.176 43.3383 365.443 40.7033 361.976 38.1774C358.508 35.6585 354.265 34.3991 349.244 34.3991C343.732 34.3991 339.598 36.3258 336.841 40.1794C334.084 44.0329 332.706 49.8823 332.707 57.7276C332.707 65.5665 334.085 71.4285 336.841 75.3135C339.598 79.1928 343.732 81.1324 349.244 81.1324ZM407.475 56.2503H415.315C415.315 48.6673 414.298 43.1357 412.264 39.6557C410.237 36.1757 406.608 34.4357 401.376 34.4357C396.306 34.4357 392.271 35.8202 389.272 38.5892C386.265 41.3581 384.762 44.7102 384.762 48.6454L387.793 50.8528C387.793 48.0337 388.751 45.5048 390.665 43.2663C392.58 41.0277 395.205 39.9084 398.541 39.9084C401.466 39.9084 403.686 41.0527 405.202 43.3415C406.717 45.6302 407.475 49.9331 407.475 56.2503ZM379.992 34.8195V80.8238H387.832V43.7156L386.165 34.8195H379.992ZM441.44 81.1324C448.324 81.1324 453.416 79.224 456.715 75.4071C460.014 71.5908 461.663 65.6851 461.663 57.69C461.663 49.6891 460.014 43.7931 456.716 40.0019C453.418 36.2107 448.326 34.3148 441.441 34.3142C434.581 34.3142 429.495 36.2101 426.183 40.0019C422.871 43.7938 421.215 49.6898 421.217 57.69C421.217 65.6851 422.872 71.5908 426.183 75.4071C429.494 79.224 434.58 81.1324 441.44 81.1324ZM441.439 75.735C437.841 75.735 434.879 74.4749 432.553 71.9547C430.22 69.43 429.054 64.6877 429.054 57.7276C429.054 50.7618 430.22 46.0256 432.553 43.5189C434.879 41.0052 437.841 39.7483 441.439 39.7483C445.037 39.7483 448.002 41.0052 450.334 43.5189C452.66 46.0262 453.823 50.7625 453.823 57.7276C453.823 64.687 452.66 69.4297 450.334 71.9557C448.002 74.4752 445.037 75.735 441.439 75.735ZM470.411 34.7925V80.8335H478.297V34.7915L470.411 34.7925ZM478.297 22.2106H470.411V29.1607H478.297V22.2106ZM517.958 73.2556L518.463 80.8238H525.759V19.8711H517.957L517.958 73.2556ZM503.403 81.1324C508.424 81.1324 512.668 79.8691 516.135 77.3425C519.602 74.8236 521.335 72.2048 521.335 69.486L517.96 65.2583C517.96 67.9456 516.787 70.3526 514.441 72.4793C512.103 74.5996 509.303 75.6597 506.042 75.6597C502.575 75.6597 499.831 74.3971 497.81 71.8718C495.79 69.3516 494.779 64.6494 494.779 57.7653C494.779 50.8811 495.79 46.176 497.81 43.6501C499.831 41.1299 502.575 39.8698 506.042 39.8698C509.303 39.8698 512.103 40.9242 514.441 43.0329C516.787 45.1403 517.959 47.5287 517.959 50.198L521.335 46.0822C521.335 43.3383 519.602 40.7033 516.135 38.1774C512.668 35.6585 508.424 34.3991 503.403 34.3991C497.891 34.3991 493.757 36.3258 491 40.1794C488.243 44.0329 486.865 49.8823 486.866 57.7276C486.866 65.5665 488.244 71.4285 491 75.3135C493.757 79.1928 497.891 81.1324 503.403 81.1324ZM90.8313 54.4923L64.5219 31.5195C64.1363 31.1834 63.6688 30.9276 63.1541 30.7713C62.6395 30.615 62.0911 30.5622 61.5498 30.6169C60.4639 30.5272 59.38 30.7982 58.5516 31.5195L32.5267 54.2666C31.899 54.8958 31.5682 55.7095 31.6011 56.5433C31.634 57.3772 32.0281 58.1691 32.7038 58.7591C33.3795 59.3491 34.2865 59.6934 35.2417 59.7223C36.1969 59.7511 37.129 59.4626 37.8499 58.9148L38.1084 58.6891V78.9983C38.1084 80.8036 39.8152 82.2704 41.8819 82.2704H81.1656C83.2592 82.2704 84.9652 80.8036 84.9652 78.9761V58.6669L85.5081 59.1395C85.8565 59.4464 86.2711 59.69 86.7279 59.8563C87.1847 60.0225 87.6748 60.1081 88.1697 60.1081C88.6646 60.1081 89.1546 60.0225 89.6115 59.8563C90.0683 59.69 90.4829 59.4464 90.8313 59.1395C92.3049 57.854 92.3049 55.7787 90.8313 54.4923ZM77.4182 75.7041H45.6554V52.0775L61.5498 38.1996L77.4182 52.0766V75.7041Z" fill="black"/>
</svg>
