<svg xmlns="http://www.w3.org/2000/svg" xml:space="preserve" width="1500" height="103" data-id="lg_AQ9x8cUD1dI5EJKc3Q" data-version="1" viewBox="0 0 1500 103"><g data-padding="20"><g transform="translate(10 1.836)scale(.96435)"><rect width="125.289" height="125.289" x="385.339" y="-487.645" fill="#ffe300" rx="29" ry="29" transform="matrix(.82 0 0 .82 171.08 400)"/><rect width="458.409" height="93.79" x="149.504" y="-406.174" fill="none" rx="0" ry="0" transform="matrix(.97 0 0 .97 457.98 400.42)"/><path d="M605.892 22.374v54.349h8.206V51.687h24.396v25.036h8.215v-54.35h-8.215v23.59h-24.396v-23.59Zm69.801 54.669q10.71 0 15.84-5.937 5.132-5.936 5.132-18.372 0-12.445-5.132-18.342t-15.84-5.898q-10.67 0-15.82 5.898t-5.15 18.342q0 12.436 5.15 18.372 5.15 5.937 15.82 5.937m0-5.597q-5.597 0-9.225-3.92-3.618-3.927-3.618-14.753 0-10.835 3.618-14.734 3.628-3.91 9.225-3.91t9.215 3.91q3.628 3.9 3.628 14.734 0 10.825-3.628 14.754-3.618 3.919-9.215 3.919m28.858-42.418v47.705h8.177v-39.77l-1.775-7.935Zm26.694 19.08v28.625h8.13V47.545q0-8.128-2.9-13.54t-11.03-5.414q-7.169 0-12.135 5.287-4.976 5.296-4.976 12.26l4.306 2.174q0-6.606 2.823-10.302 2.813-3.705 7.362-3.705 4.51 0 6.46 3.395 1.96 3.404 1.96 10.408m26.568 0v28.625h8.13V47.545q0-8.128-2.863-13.54-2.85-5.414-10.94-5.414-7.208 0-12.184 5.326-4.967 5.335-4.967 12.222l4.346 2.173q0-6.606 2.813-10.302 2.822-3.705 7.333-3.705 4.55 0 6.44 3.395 1.892 3.404 1.892 10.408m36.473 29.012v-5.393q-6.12 0-9.545-4.462-3.463-4.394-3.463-14.492 0-10.67 3.59-14.773 3.54-4.074 9.291-4.074 5.917 0 9.225 3.87 2.852 3.619 3.172 12.397h-26.16v5.073h34.211q.165-1.212.165-2.62 0-11.95-4.753-18.031-4.792-6.082-15.86-6.082-10.747 0-15.733 6.082-5.035 6.043-5.035 18.158 0 11.427 4.91 17.906 4.87 6.44 15.984 6.44m0-5.392v5.393q6.033 0 9.98-1.561 3.948-1.572 6.441-5.035 2.455-3.424 3.143-8.332l-7.333-1.98q-.679 3.55-2.047 6.364-1.455 2.823-4.074 3.987-2.609 1.164-6.11 1.164m59.45-2.852.524 7.848h7.566V13.517h-8.09Zm-15.093 8.168q7.81 0 13.202-3.93 5.393-3.918 5.393-8.147l-3.5-4.384q0 4.18-3.639 7.488-3.647 3.298-8.72 3.298-5.393 0-8.536-3.928-3.133-3.92-3.133-14.628t3.133-14.637q3.143-3.92 8.536-3.92 5.073 0 8.72 3.28 3.638 3.278 3.638 7.43l3.501-4.268q0-4.268-5.393-8.197-5.393-3.918-13.202-3.918-8.574 0-12.862 5.994t-4.287 18.197q0 12.193 4.287 18.236 4.288 6.034 12.862 6.034m60.383-25.802h8.13q0-11.795-3.164-17.208-3.152-5.413-11.29-5.413-7.887 0-12.552 4.307-4.676 4.307-4.676 10.428l3.143 2.289q0-4.385 2.978-7.867t8.167-3.482q4.55 0 6.907 3.56t2.357 13.386m-28.499-22.223v47.705h8.13v-38.48l-1.728-9.225Zm63.72 48.025q10.708 0 15.84-5.937 5.131-5.936 5.131-18.372 0-12.445-5.13-18.342t-15.84-5.898q-10.67 0-15.822 5.898t-5.15 18.342q0 12.436 5.15 18.372 5.15 5.937 15.82 5.937m0-5.597q-5.597 0-9.215-3.92-3.628-3.927-3.628-14.753 0-10.835 3.628-14.734 3.618-3.91 9.215-3.91t9.224 3.91q3.618 3.9 3.618 14.734 0 10.825-3.618 14.754-3.627 3.919-9.224 3.919m30.043-42.456v47.743h8.177V28.989Zm8.177-13.047h-8.177v7.207h8.177Zm41.128 52.932.523 7.848h7.566V13.517h-8.09ZM998.5 77.043q7.81 0 13.202-3.93 5.393-3.918 5.393-8.147l-3.5-4.384q0 4.18-3.649 7.488-3.637 3.298-8.71 3.298-5.393 0-8.536-3.928-3.143-3.92-3.143-14.628t3.143-14.637q3.143-3.92 8.536-3.92 5.073 0 8.71 3.28 3.648 3.278 3.648 7.43l3.501-4.268q0-4.268-5.393-8.197-5.393-3.918-13.202-3.918-8.574 0-12.862 5.994t-4.287 18.197q0 12.193 4.287 18.236 4.288 6.034 12.862 6.034M570.676 49.418l-27.282-23.822a3.752 3.276 0 0 0-3.082-.936c-1.126-.093-2.25.188-3.109.936l-26.987 23.588a3.913 3.416 0 0 0 5.52 4.82l.268-.234v21.06c0 1.872 1.77 3.393 3.913 3.393h40.736c2.171 0 3.94-1.521 3.94-3.416v-21.06l.563.49a3.886 3.393 0 0 0 5.52 0c1.528-1.333 1.528-3.486 0-4.82m-13.909 21.997H523.83v-24.5l16.482-14.391 16.455 14.39Z"/></g><path fill="transparent" stroke="transparent" d="M469.5 0h561v103h-561z"/></g></svg>